<svg width="112" height="14" viewBox="0 0 112 14" fill="none" xmlns="http://www.w3.org/2000/svg">
<path d="M9.6123 3.56199H9.5223L8.53231 5.59599L5.77831 10.618L3.0243 5.59599L2.03431 3.56199H1.94431V13.174H0.000305176V0.609985H2.4123L5.77831 6.99999H5.8863L9.2523 0.609985H11.5563V13.174H9.6123V3.56199ZM21.3745 13.174C20.8585 13.174 20.4625 13.03 20.1865 12.742C19.9105 12.442 19.7425 12.064 19.6825 11.608H19.5925C19.4125 12.196 19.0825 12.64 18.6025 12.94C18.1225 13.24 17.5405 13.39 16.8565 13.39C15.8845 13.39 15.1345 13.138 14.6065 12.634C14.0905 12.13 13.8325 11.452 13.8325 10.6C13.8325 9.66399 14.1685 8.96199 14.8405 8.49399C15.5245 8.02599 16.5205 7.79199 17.8285 7.79199H19.5205V6.99999C19.5205 6.42399 19.3645 5.97999 19.0525 5.66799C18.7405 5.35599 18.2545 5.19999 17.5945 5.19999C17.0425 5.19999 16.5925 5.31999 16.2445 5.55999C15.8965 5.79998 15.6025 6.10599 15.3625 6.47799L14.1925 5.41599C14.5045 4.88799 14.9425 4.45599 15.5065 4.11999C16.0705 3.77199 16.8085 3.59799 17.7205 3.59799C18.9325 3.59799 19.8625 3.87999 20.5105 4.44399C21.1585 5.00799 21.4825 5.81799 21.4825 6.87399V11.572H22.4725V13.174H21.3745ZM17.4145 11.896C18.0265 11.896 18.5305 11.764 18.9265 11.5C19.3225 11.224 19.5205 10.858 19.5205 10.402V9.05199H17.8645C16.5085 9.05199 15.8305 9.47199 15.8305 10.312V10.636C15.8305 11.056 15.9685 11.374 16.2445 11.59C16.5325 11.794 16.9225 11.896 17.4145 11.896ZM24.3954 13.174V3.81399H26.3574V5.36199H26.4474C26.6514 4.85799 26.9574 4.43799 27.3654 4.10199C27.7854 3.76599 28.3554 3.59799 29.0754 3.59799C30.0354 3.59799 30.7794 3.91599 31.3074 4.55199C31.8474 5.17599 32.1174 6.06999 32.1174 7.23399V13.174H30.1554V7.48599C30.1554 6.02199 29.5674 5.28999 28.3914 5.28999C28.1394 5.28999 27.8874 5.32599 27.6354 5.39799C27.3954 5.45799 27.1794 5.55399 26.9874 5.68599C26.7954 5.81799 26.6394 5.98599 26.5194 6.18999C26.4114 6.39399 26.3574 6.63399 26.3574 6.90999V13.174H24.3954ZM38.5088 13.39C37.8368 13.39 37.2368 13.276 36.7088 13.048C36.1808 12.82 35.7308 12.496 35.3588 12.076C34.9868 11.644 34.6988 11.128 34.4948 10.528C34.3028 9.91599 34.2068 9.23799 34.2068 8.49399C34.2068 7.74999 34.3028 7.07799 34.4948 6.47799C34.6988 5.86599 34.9868 5.34999 35.3588 4.92999C35.7308 4.49799 36.1808 4.16799 36.7088 3.93999C37.2368 3.71199 37.8368 3.59799 38.5088 3.59799C39.1928 3.59799 39.7928 3.71799 40.3088 3.95799C40.8368 4.19799 41.2748 4.53399 41.6228 4.96599C41.9708 5.38599 42.2288 5.87799 42.3968 6.44199C42.5768 7.00599 42.6668 7.61199 42.6668 8.25999V8.99798H36.2408V9.30398C36.2408 10.024 36.4508 10.618 36.8708 11.086C37.3028 11.542 37.9148 11.77 38.7068 11.77C39.2828 11.77 39.7688 11.644 40.1648 11.392C40.5608 11.14 40.8968 10.798 41.1728 10.366L42.3248 11.5C41.9768 12.076 41.4728 12.538 40.8128 12.886C40.1528 13.222 39.3848 13.39 38.5088 13.39ZM38.5088 5.12799C38.1728 5.12799 37.8608 5.18799 37.5728 5.30799C37.2968 5.42799 37.0568 5.59598 36.8528 5.81199C36.6608 6.02799 36.5108 6.28598 36.4028 6.58599C36.2948 6.88599 36.2408 7.21599 36.2408 7.57599V7.70199H40.5968V7.52199C40.5968 6.80198 40.4108 6.22599 40.0388 5.79399C39.6668 5.34999 39.1568 5.12799 38.5088 5.12799ZM50.5087 11.626H50.4367C50.3527 11.854 50.2387 12.076 50.0947 12.292C49.9627 12.508 49.7887 12.7 49.5727 12.868C49.3687 13.024 49.1167 13.15 48.8167 13.246C48.5287 13.342 48.1927 13.39 47.8087 13.39C46.8367 13.39 46.0807 13.078 45.5407 12.454C45.0127 11.83 44.7487 10.936 44.7487 9.77199V3.81399H46.7107V9.51999C46.7107 10.972 47.3107 11.698 48.5107 11.698C48.7627 11.698 49.0087 11.668 49.2487 11.608C49.4887 11.536 49.6987 11.434 49.8787 11.302C50.0707 11.17 50.2207 11.002 50.3287 10.798C50.4487 10.594 50.5087 10.354 50.5087 10.078V3.81399H52.4707V13.174H50.5087V11.626ZM57.3141 13.174L54.1281 3.81399H56.0721L57.4941 8.07999L58.4481 11.356H58.5561L59.5101 8.07999L60.9681 3.81399H62.8401L59.6181 13.174H57.3141ZM68.0223 13.39C67.3503 13.39 66.7503 13.276 66.2223 13.048C65.6943 12.82 65.2443 12.496 64.8724 12.076C64.5004 11.644 64.2124 11.128 64.0084 10.528C63.8164 9.91599 63.7204 9.23799 63.7204 8.49399C63.7204 7.74999 63.8164 7.07799 64.0084 6.47799C64.2124 5.86599 64.5004 5.34999 64.8724 4.92999C65.2443 4.49799 65.6943 4.16799 66.2223 3.93999C66.7503 3.71199 67.3503 3.59799 68.0223 3.59799C68.7063 3.59799 69.3063 3.71799 69.8223 3.95799C70.3503 4.19799 70.7883 4.53399 71.1363 4.96599C71.4843 5.38599 71.7423 5.87799 71.9103 6.44199C72.0903 7.00599 72.1803 7.61199 72.1803 8.25999V8.99798H65.7543V9.30398C65.7543 10.024 65.9643 10.618 66.3843 11.086C66.8163 11.542 67.4283 11.77 68.2203 11.77C68.7963 11.77 69.2823 11.644 69.6783 11.392C70.0743 11.14 70.4103 10.798 70.6863 10.366L71.8383 11.5C71.4903 12.076 70.9863 12.538 70.3263 12.886C69.6663 13.222 68.8983 13.39 68.0223 13.39ZM68.0223 5.12799C67.6863 5.12799 67.3743 5.18799 67.0863 5.30799C66.8103 5.42799 66.5703 5.59598 66.3663 5.81199C66.1743 6.02799 66.0243 6.28598 65.9163 6.58599C65.8083 6.88599 65.7543 7.21599 65.7543 7.57599V7.70199H70.1103V7.52199C70.1103 6.80198 69.9243 6.22599 69.5523 5.79399C69.1803 5.34999 68.6703 5.12799 68.0223 5.12799ZM74.3523 13.174V3.81399H76.3143V5.61399H76.4043C76.5363 5.13399 76.8123 4.71399 77.2323 4.35399C77.6523 3.99399 78.2343 3.81399 78.9783 3.81399H79.5003V5.70399H78.7263C77.9463 5.70399 77.3463 5.82999 76.9263 6.08199C76.5183 6.33399 76.3143 6.70599 76.3143 7.19799V13.174H74.3523Z" fill="#75FB4C"/>
<path d="M84.4493 3.40198H88.4673C89.2793 3.40198 89.9143 3.63068 90.3713 4.08798C90.8383 4.54528 91.0713 5.15668 91.0713 5.92198C91.0713 6.28598 91.0203 6.59398 90.9173 6.84598C90.8153 7.09798 90.6843 7.30798 90.5253 7.47598C90.3673 7.63468 90.1943 7.75598 90.0073 7.83998C89.8213 7.91468 89.6483 7.96598 89.4893 7.99398V8.07798C89.6673 8.08728 89.8633 8.13398 90.0773 8.21798C90.3013 8.30198 90.5113 8.43728 90.7073 8.62398C90.9033 8.80128 91.0673 9.03468 91.1973 9.32398C91.3373 9.60398 91.4073 9.94468 91.4073 10.346C91.4073 10.7473 91.3423 11.1207 91.2113 11.466C91.0903 11.8113 90.9173 12.11 90.6933 12.362C90.4693 12.614 90.2033 12.8147 89.8953 12.964C89.5873 13.104 89.2513 13.174 88.8873 13.174H84.4493V3.40198ZM85.6253 12.138H88.5233C89.0273 12.138 89.4243 12.012 89.7133 11.76C90.0033 11.4987 90.1473 11.1207 90.1473 10.626V10.15C90.1473 9.65528 90.0033 9.28198 89.7133 9.02998C89.4243 8.76868 89.0273 8.63798 88.5233 8.63798H85.6253V12.138ZM85.6253 7.62998H88.3273C88.7943 7.62998 89.1583 7.51328 89.4193 7.27998C89.6813 7.04668 89.8113 6.71068 89.8113 6.27198V5.79598C89.8113 5.35728 89.6813 5.02128 89.4193 4.78798C89.1583 4.55468 88.7943 4.43798 88.3273 4.43798H85.6253V7.62998ZM96.2003 13.342C95.7053 13.342 95.2573 13.2533 94.8563 13.076C94.4643 12.8987 94.1233 12.6467 93.8343 12.32C93.5543 11.984 93.3343 11.5873 93.1763 11.13C93.0263 10.6633 92.9523 10.1407 92.9523 9.56198C92.9523 8.99268 93.0263 8.47468 93.1763 8.00798C93.3343 7.54128 93.5543 7.14468 93.8343 6.81798C94.1233 6.48198 94.4643 6.22528 94.8563 6.04798C95.2573 5.87068 95.7053 5.78198 96.2003 5.78198C96.6853 5.78198 97.1193 5.87068 97.5023 6.04798C97.8843 6.22528 98.2113 6.47268 98.4823 6.78998C98.7523 7.09798 98.9583 7.46668 99.0983 7.89598C99.2473 8.32528 99.3223 8.79668 99.3223 9.30998V9.84198H94.1283V10.178C94.1283 10.486 94.1743 10.7753 94.2683 11.046C94.3703 11.3073 94.5103 11.536 94.6883 11.732C94.8743 11.928 95.0983 12.082 95.3603 12.194C95.6303 12.306 95.9343 12.362 96.2703 12.362C96.7273 12.362 97.1243 12.2547 97.4603 12.04C97.8053 11.8253 98.0713 11.5173 98.2583 11.116L99.0563 11.69C98.8223 12.1847 98.4583 12.586 97.9643 12.894C97.4693 13.1927 96.8813 13.342 96.2003 13.342ZM96.2003 6.71998C95.8923 6.71998 95.6123 6.77598 95.3603 6.88798C95.1083 6.99068 94.8883 7.13998 94.7023 7.33598C94.5243 7.53198 94.3843 7.76528 94.2823 8.03598C94.1793 8.29728 94.1283 8.58668 94.1283 8.90398V9.00198H98.1183V8.84798C98.1183 8.20398 97.9403 7.69068 97.5863 7.30798C97.2403 6.91598 96.7783 6.71998 96.2003 6.71998ZM102.763 13.174C102.371 13.174 102.073 13.0667 101.867 12.852C101.671 12.628 101.573 12.3387 101.573 11.984V6.92998H100.383V5.94998H101.055C101.298 5.94998 101.461 5.90328 101.545 5.80998C101.639 5.70728 101.685 5.53468 101.685 5.29198V3.94798H102.693V5.94998H104.275V6.92998H102.693V12.194H104.163V13.174H102.763ZM111.326 13.174C110.906 13.174 110.602 13.062 110.416 12.838C110.238 12.614 110.126 12.334 110.08 11.998H110.01C109.851 12.446 109.59 12.782 109.226 13.006C108.862 13.23 108.428 13.342 107.924 13.342C107.158 13.342 106.561 13.146 106.132 12.754C105.712 12.362 105.502 11.83 105.502 11.158C105.502 10.4767 105.749 9.95398 106.244 9.58998C106.748 9.22598 107.527 9.04398 108.582 9.04398H110.01V8.32998C110.01 7.81668 109.87 7.42468 109.59 7.15398C109.31 6.88328 108.88 6.74798 108.302 6.74798C107.863 6.74798 107.494 6.84598 107.196 7.04198C106.906 7.23798 106.664 7.49928 106.468 7.82598L105.796 7.19598C105.992 6.80398 106.304 6.47268 106.734 6.20198C107.163 5.92198 107.704 5.78198 108.358 5.78198C109.235 5.78198 109.916 5.99668 110.402 6.42598C110.887 6.85528 111.13 7.45268 111.13 8.21798V12.194H111.956V13.174H111.326ZM108.106 12.39C108.386 12.39 108.642 12.3573 108.876 12.292C109.109 12.2267 109.31 12.1333 109.478 12.012C109.646 11.8907 109.776 11.7507 109.87 11.592C109.963 11.4333 110.01 11.2607 110.01 11.074V9.88398H108.526C107.882 9.88398 107.41 9.97728 107.112 10.164C106.822 10.3507 106.678 10.6213 106.678 10.976V11.27C106.678 11.6247 106.804 11.9 107.056 12.096C107.317 12.292 107.667 12.39 108.106 12.39Z" fill="#B0B0B0"/>
</svg>
