<svg width="20" height="20" viewBox="0 0 20 20" fill="none" xmlns="http://www.w3.org/2000/svg">
<path d="M7 4H10.75C11.3467 4 11.919 4.23705 12.341 4.65901C12.7629 5.08097 13 5.65326 13 6.25V7.75C13 8.34674 12.7629 8.91903 12.341 9.34099C11.919 9.76295 11.3467 10 10.75 10M10.75 10H8.5M10.75 10C11.3467 10 11.919 10.2371 12.341 10.659C12.7629 11.081 13 11.6533 13 12.25V13.75C13 14.3467 12.7629 14.919 12.341 15.341C11.919 15.7629 11.3467 16 10.75 16H7" stroke="#75FB4C" stroke-width="1.5" stroke-linecap="round" stroke-linejoin="round"/>
</svg>
