<svg width="14" height="14" viewBox="0 0 14 14" fill="none" xmlns="http://www.w3.org/2000/svg">
<g clip-path="url(#clip0_275_1587)">
<path d="M11.7578 9.26562C12.2532 8.27893 12.3617 7.24815 12.1853 6.15827C12.0089 5.06839 11.5371 4.02709 10.7557 3.24701C9.97445 2.46694 8.92349 1.9878 7.83333 1.81313C6.74318 1.63846 5.73982 1.74136 4.75391 2.23828M3.28587 3.29001C2.30169 4.27497 1.74909 5.61055 1.74963 7.00294C1.75018 8.39534 2.30383 9.73049 3.28879 10.7147C4.27375 11.6989 5.60933 12.2515 7.00173 12.2509C8.39412 12.2504 9.72927 11.6967 10.7135 10.7118" stroke="#898989" stroke-width="1.5" stroke-linecap="round" stroke-linejoin="round"/>
<path d="M1.75 1.75L12.25 12.25" stroke="#898989" stroke-width="1.5" stroke-linecap="round" stroke-linejoin="round"/>
</g>
<defs>
<clipPath id="clip0_275_1587">
<rect width="14" height="14" fill="white"/>
</clipPath>
</defs>
</svg>
