<svg width="24" height="24" viewBox="0 0 24 24" fill="none" xmlns="http://www.w3.org/2000/svg">
<path d="M15.6001 4.8V10.2C15.6001 10.6774 15.7897 11.1352 16.1273 11.4728C16.4649 11.8104 16.9227 12 17.4001 12H22.8001" stroke="#75FB4C" stroke-width="1.5" stroke-linecap="round" stroke-linejoin="round"/>
<path d="M22.8001 4.8V19.2" stroke="#75FB4C" stroke-width="1.5" stroke-linecap="round" stroke-linejoin="round"/>
<path d="M1.20001 4.8H6.60001C7.0774 4.8 7.53524 4.98965 7.8728 5.32721C8.21037 5.66478 8.40001 6.12261 8.40001 6.6V10.2C8.40001 10.6774 8.21037 11.1352 7.8728 11.4728C7.53524 11.8104 7.0774 12 6.60001 12H3.00001C2.52262 12 2.06479 12.1896 1.72722 12.5272C1.38965 12.8648 1.20001 13.3226 1.20001 13.8V17.4C1.20001 17.8774 1.38965 18.3352 1.72722 18.6728C2.06479 19.0104 2.52262 19.2 3.00001 19.2H8.40001" stroke="#75FB4C" stroke-width="1.5" stroke-linecap="round" stroke-linejoin="round"/>
</svg>
