<svg width="20" height="21" viewBox="0 0 20 21" fill="none" xmlns="http://www.w3.org/2000/svg">
<g clip-path="url(#clip0_404_699)">
<path d="M10.0021 0.200012C10.3604 0.200377 10.6514 0.491 10.6514 0.849363L10.6504 2.95671C12.262 3.09946 13.7222 3.7676 14.859 4.7891L15.6037 4.04741C15.7559 3.896 16.0018 3.89669 16.1537 4.04843C16.3055 4.2007 16.3059 4.44735 16.1537 4.59936L15.4109 5.34104C16.4327 6.47808 17.0996 7.93868 17.2423 9.55066L19.3506 9.55167L19.4816 9.56487C19.7776 9.62543 20.0002 9.88813 20 10.202C19.9997 10.5154 19.7771 10.7766 19.4816 10.8372L19.3506 10.8504L17.2423 10.8494C17.0996 12.4616 16.432 13.9219 15.41 15.059L16.1537 15.8006C16.3059 15.9526 16.3057 16.1993 16.1537 16.3516C16.0018 16.5032 15.7558 16.504 15.6037 16.3526L14.859 15.6099C13.7219 16.6318 12.2616 17.2996 10.6493 17.4423L10.6514 19.5507C10.6514 19.9091 10.3605 20.1997 10.0021 20.2C9.6436 20.2 9.35291 19.9091 9.3527 19.5507L9.35066 17.4423C7.73858 17.2995 6.27808 16.6319 5.14104 15.6099L4.39936 16.3536C4.24734 16.5056 4.0006 16.5054 3.84843 16.3536C3.69624 16.2016 3.6964 15.9549 3.84843 15.8027L4.5901 15.06C3.56728 13.9221 2.89881 12.4599 2.7567 10.8464C2.74702 10.8468 2.73705 10.8504 2.72727 10.8504H0.649352C0.291032 10.8502 0.000216104 10.5594 0 10.201C0 9.84253 0.290899 9.55188 0.649352 9.55167H2.72727C2.73705 9.55167 2.74703 9.55429 2.7567 9.55472C2.89864 7.94049 3.56679 6.47722 4.5901 5.33901L3.84843 4.59734L3.7987 4.53544C3.69926 4.38429 3.71556 4.17935 3.84843 4.0464C4.0006 3.89446 4.2473 3.89442 4.39936 4.0464L5.14104 4.7891C6.27826 3.76712 7.7394 3.09924 9.35168 2.95671L9.3527 0.849363L9.36588 0.718479C9.42648 0.422595 9.68831 0.200009 10.0021 0.200012ZM10 4.22599C6.70082 4.22619 4.02598 6.90077 4.02598 10.2C4.02598 13.4992 6.70082 16.1738 10 16.174C13.2994 16.174 15.974 13.4993 15.974 10.2C15.974 6.90065 13.2994 4.22599 10 4.22599ZM10 7.08414C11.7214 7.08414 13.1169 8.47962 13.1169 10.201C13.1169 11.9224 11.7214 13.3179 10 13.3179C8.27878 13.3177 6.88312 11.9223 6.88312 10.201C6.88312 8.47974 8.27878 7.08435 10 7.08414ZM10 8.64258C9.13948 8.64279 8.44157 9.34045 8.44157 10.201C8.44157 11.0616 9.13948 11.7593 10 11.7595C10.8608 11.7595 11.5584 11.0617 11.5584 10.201C11.5584 9.34031 10.8608 8.64258 10 8.64258Z" fill="#75FB4C"/>
</g>
<defs>
<clipPath id="clip0_404_699">
<rect width="20" height="20" fill="white" transform="translate(0 0.200012)"/>
</clipPath>
</defs>
</svg>
