<svg width="20" height="20" viewBox="0 0 20 20" fill="none" xmlns="http://www.w3.org/2000/svg">
<path d="M13 5.5C13 5.10218 12.842 4.72064 12.5607 4.43934C12.2794 4.15804 11.8978 4 11.5 4H8.5C8.10218 4 7.72064 4.15804 7.43934 4.43934C7.15804 4.72064 7 5.10218 7 5.5V14.5C7 14.8978 7.15804 15.2794 7.43934 15.5607C7.72064 15.842 8.10218 16 8.5 16H11.5C11.8978 16 12.2794 15.842 12.5607 15.5607C12.842 15.2794 13 14.8978 13 14.5V11.5C13 11.1022 12.842 10.7206 12.5607 10.4393C12.2794 10.158 11.8978 10 11.5 10H7" stroke="#75FB4C" stroke-width="1.5" stroke-linecap="round" stroke-linejoin="round"/>
</svg>
