<svg width="20" height="21" viewBox="0 0 20 21" fill="none" xmlns="http://www.w3.org/2000/svg">
<path d="M3 4.20001H4.5V16.2" stroke="#75FB4C" stroke-width="1.5" stroke-linecap="round" stroke-linejoin="round"/>
<path d="M10.4999 4.20001H14.9999C15.3978 4.20001 15.7793 4.35805 16.0606 4.63935C16.3419 4.92066 16.4999 5.30219 16.4999 5.70001V8.70001C16.4999 9.09784 16.3419 9.47937 16.0606 9.76067C15.7793 10.042 15.3978 10.2 14.9999 10.2H11.9999C11.6021 10.2 11.2206 10.358 10.9393 10.6394C10.658 10.9207 10.4999 11.3022 10.4999 11.7V14.7C10.4999 15.0978 10.658 15.4794 10.9393 15.7607C11.2206 16.042 11.6021 16.2 11.9999 16.2H16.4999" stroke="#75FB4C" stroke-width="1.5" stroke-linecap="round" stroke-linejoin="round"/>
</svg>
