<svg width="25" height="24" viewBox="0 0 25 24" fill="none" xmlns="http://www.w3.org/2000/svg">
<g clip-path="url(#clip0_404_736)">
<path d="M12.5 4.08105C8.12684 4.08132 4.58107 7.62666 4.58105 12C4.58105 16.2368 7.90882 19.696 12.0928 19.9082L12.5 19.9189C16.8735 19.9189 20.4189 16.3734 20.4189 12C20.4189 7.76314 17.0915 4.30375 12.9072 4.0918L12.5 4.08105ZM12.5 9.01074C14.1514 9.01074 15.4901 10.3496 15.4902 12.001C15.4902 13.6525 14.1515 14.9912 12.5 14.9912C10.8486 14.991 9.50977 13.6522 9.50977 12.001C9.50991 10.3499 10.8487 9.011 12.5 9.01074ZM12.5 9.38086C11.0536 9.38121 9.88002 10.554 9.87988 12.001C9.87988 13.3578 10.9114 14.4732 12.2324 14.6074L12.5 14.6211C13.9472 14.6211 15.1201 13.448 15.1201 12.001C15.12 10.6444 14.0889 9.52854 12.7676 9.39453L12.5 9.38086ZM1.2793 11.9717H3.72754C3.72975 11.9719 3.73201 11.9724 3.73438 11.9727C3.74567 11.9737 3.75999 11.9739 3.77539 11.9746L4.35938 12L3.77539 12.0264C3.75879 12.0271 3.74375 12.029 3.73047 12.0303H1.2793L1.26855 12.0283C1.26556 12.027 1.26205 12.0247 1.25879 12.0215C1.25555 12.0182 1.25322 12.0147 1.25195 12.0117C1.25092 12.0092 1.25002 12.0061 1.25 12.001L1.25195 11.9902C1.2532 11.9873 1.25558 11.9837 1.25879 11.9805C1.26196 11.9774 1.26558 11.9749 1.26855 11.9736L1.2793 11.9717ZM3.65527 12.041C3.65273 12.0415 3.64971 12.0417 3.64844 12.042H3.64648C3.64648 12.042 3.65014 12.0418 3.6543 12.041C3.65595 12.0407 3.65781 12.0395 3.66016 12.0391C3.65822 12.0394 3.65671 12.0407 3.65527 12.041ZM3.68945 11.9668C3.69293 11.9673 3.69896 11.9679 3.70605 11.9688H3.70508C3.69792 11.968 3.69188 11.9672 3.68848 11.9668C3.68565 11.9664 3.68359 11.9658 3.68359 11.9658C3.68388 11.9659 3.68435 11.9656 3.68555 11.9658C3.68644 11.9659 3.68782 11.9666 3.68945 11.9668ZM12.4697 20.0039L11.7871 19.9434C10.0198 19.7869 8.4185 19.0558 7.1709 17.9346L6.84473 17.6416L6.56543 17.3311C5.44303 16.0824 4.71051 14.4789 4.55469 12.71L4.49219 12L4.55469 11.291C4.71038 9.52115 5.44273 7.91675 6.56543 6.66797L6.84668 6.35547L7.1709 6.06445C8.41874 4.94319 10.0205 4.21094 11.7881 4.05469L12.4717 3.99512V3.30859L12.4727 0.81543L12.4785 0.764648C12.4801 0.76212 12.4815 0.759214 12.4844 0.756836C12.4872 0.754544 12.4898 0.752874 12.4922 0.751953C12.4943 0.751195 12.4974 0.750052 12.502 0.75C12.5069 0.750032 12.5102 0.750929 12.5127 0.751953C12.5158 0.753282 12.5201 0.755492 12.5234 0.758789C12.5267 0.762059 12.5291 0.765679 12.5303 0.768555C12.5313 0.770926 12.5312 0.774257 12.5312 0.779297L12.5303 3.30762V3.99414L13.2139 4.05469C14.9805 4.21116 16.5815 4.94362 17.8291 6.06445L18.1475 6.35059L18.4355 6.6709C19.5565 7.91836 20.287 9.51966 20.4434 11.2871L20.5039 11.9707H23.6816L23.7334 11.9766C23.7363 11.9782 23.7402 11.9798 23.7432 11.9834C23.7454 11.9862 23.7471 11.9887 23.748 11.9912L23.75 12.002C23.75 12.0066 23.7488 12.0097 23.748 12.0117C23.7472 12.014 23.7463 12.0169 23.7441 12.0195C23.7416 12.0226 23.7371 12.0227 23.7344 12.0244L23.6846 12.0293H20.5039L20.4434 12.7129C20.287 14.4804 19.5559 16.0813 18.4346 17.3291L18.1514 17.6426L17.8291 17.9336C16.5812 19.055 14.9805 19.787 13.2129 19.9434L12.5283 20.0039L12.5293 20.6914L12.5312 23.2217C12.5312 23.2264 12.5303 23.2292 12.5293 23.2314C12.5281 23.2343 12.5266 23.238 12.5234 23.2412C12.5203 23.2444 12.5167 23.2467 12.5137 23.248C12.5111 23.2491 12.5073 23.249 12.502 23.249C12.497 23.249 12.4936 23.249 12.4912 23.248C12.4884 23.2468 12.4855 23.2443 12.4824 23.2412C12.4792 23.238 12.4769 23.2345 12.4756 23.2314C12.4745 23.2289 12.4737 23.2259 12.4736 23.2207V23.2197L12.4707 20.6904L12.4697 20.0039Z" fill="#75FB4C" stroke="#75FB4C" stroke-width="1.5"/>
</g>
<defs>
<clipPath id="clip0_404_736">
<rect width="24" height="24" fill="white" transform="translate(0.5)"/>
</clipPath>
</defs>
</svg>
