<svg width="25" height="24" viewBox="0 0 25 24" fill="none" xmlns="http://www.w3.org/2000/svg">
<path d="M4.09998 4.79999H5.89998V19.2" stroke="#75FB4C" stroke-width="1.5" stroke-linecap="round" stroke-linejoin="round"/>
<path d="M13.1 4.79999H18.5C18.9774 4.79999 19.4352 4.98963 19.7728 5.3272C20.1103 5.66476 20.3 6.1226 20.3 6.59999V10.2C20.3 10.6774 20.1103 11.1352 19.7728 11.4728C19.4352 11.8103 18.9774 12 18.5 12H14.9C14.4226 12 13.9647 12.1896 13.6272 12.5272C13.2896 12.8648 13.1 13.3226 13.1 13.8V17.4C13.1 17.8774 13.2896 18.3352 13.6272 18.6728C13.9647 19.0103 14.4226 19.2 14.9 19.2H20.3" stroke="#75FB4C" stroke-width="1.5" stroke-linecap="round" stroke-linejoin="round"/>
</svg>
