<svg width="20" height="20" viewBox="0 0 20 20" fill="none" xmlns="http://www.w3.org/2000/svg">
<path d="M3 4H4.5V16" stroke="#75FB4C" stroke-width="1.5" stroke-linecap="round" stroke-linejoin="round"/>
<path d="M10.4999 4H14.9999C15.3978 4 15.7793 4.15804 16.0606 4.43934C16.3419 4.72064 16.4999 5.10218 16.4999 5.5V8.5C16.4999 8.89782 16.3419 9.27936 16.0606 9.56066C15.7793 9.84196 15.3978 10 14.9999 10H11.9999C11.6021 10 11.2206 10.158 10.9393 10.4393C10.658 10.7206 10.4999 11.1022 10.4999 11.5V14.5C10.4999 14.8978 10.658 15.2794 10.9393 15.5607C11.2206 15.842 11.6021 16 11.9999 16H16.4999" stroke="#75FB4C" stroke-width="1.5" stroke-linecap="round" stroke-linejoin="round"/>
</svg>
