<svg width="24" height="24" viewBox="0 0 24 24" fill="none" xmlns="http://www.w3.org/2000/svg">
<path d="M3.59998 4.8H5.39998V19.2" stroke="#75FB4C" stroke-width="1.5" stroke-linecap="round" stroke-linejoin="round"/>
<path d="M12.5999 4.8H17.9999C18.4773 4.8 18.9351 4.98965 19.2727 5.32721C19.6103 5.66478 19.7999 6.12261 19.7999 6.6V10.2C19.7999 10.6774 19.6103 11.1352 19.2727 11.4728C18.9351 11.8104 18.4773 12 17.9999 12H14.3999C13.9225 12 13.4647 12.1896 13.1271 12.5272C12.7896 12.8648 12.5999 13.3226 12.5999 13.8V17.4C12.5999 17.8774 12.7896 18.3352 13.1271 18.6728C13.4647 19.0104 13.9225 19.2 14.3999 19.2H19.7999" stroke="#75FB4C" stroke-width="1.5" stroke-linecap="round" stroke-linejoin="round"/>
</svg>
