<svg width="20" height="20" viewBox="0 0 20 20" fill="none" xmlns="http://www.w3.org/2000/svg">
<path d="M13.0001 4V8.5C13.0001 8.89782 13.1581 9.27936 13.4394 9.56066C13.7207 9.84196 14.1022 10 14.5001 10H19.0001" stroke="#75FB4C" stroke-width="1.5" stroke-linecap="round" stroke-linejoin="round"/>
<path d="M19.0001 4V16" stroke="#75FB4C" stroke-width="1.5" stroke-linecap="round" stroke-linejoin="round"/>
<path d="M1 4H5.5C5.89782 4 6.27936 4.15804 6.56066 4.43934C6.84196 4.72064 7 5.10218 7 5.5V8.5C7 8.89782 6.84196 9.27936 6.56066 9.56066C6.27936 9.84196 5.89782 10 5.5 10H2.5C2.10218 10 1.72064 10.158 1.43934 10.4393C1.15804 10.7206 1 11.1022 1 11.5V14.5C1 14.8978 1.15804 15.2794 1.43934 15.5607C1.72064 15.842 2.10218 16 2.5 16H7" stroke="#75FB4C" stroke-width="1.5" stroke-linecap="round" stroke-linejoin="round"/>
</svg>
