<svg width="16" height="19" viewBox="0 0 16 19" fill="none" xmlns="http://www.w3.org/2000/svg">
<path d="M12.3652 0.818314C12.4657 0.416583 12.8727 0.172114 13.2744 0.272415C13.6761 0.372865 13.9206 0.779853 13.8203 1.18159L12.7676 5.39253H15C15.4141 5.39253 15.7498 5.72846 15.75 6.14253C15.75 6.55675 15.4142 6.89253 15 6.89253H12.3926L11.2246 11.5644H15C15.4142 11.5644 15.75 11.9002 15.75 12.3144C15.7499 12.7285 15.4142 13.0644 15 13.0644H10.8496L9.70605 17.6386C9.60561 18.0404 9.19864 18.2848 8.79688 18.1845C8.3951 18.0841 8.15065 17.6771 8.25098 17.2753L9.30371 13.0644H4.67773L3.53418 17.6386C3.43372 18.0404 3.02676 18.2848 2.625 18.1845C2.22349 18.0839 1.97884 17.677 2.0791 17.2753L3.13184 13.0644H1C0.585847 13.0644 0.250099 12.7285 0.25 12.3144C0.25 11.9002 0.585786 11.5644 1 11.5644H3.50684L4.6748 6.89253H1C0.585786 6.89253 0.25 6.55675 0.25 6.14253C0.250165 5.72846 0.585888 5.39253 1 5.39253H5.0498L6.19336 0.818314C6.29377 0.416686 6.70091 0.172384 7.10254 0.272415C7.50431 0.372858 7.74875 0.779823 7.64844 1.18159L6.5957 5.39253H11.2217L12.3652 0.818314ZM6.2207 6.89253L5.05273 11.5644H9.67871L10.8467 6.89253H6.2207Z" fill="#75FB4C"/>
</svg>
