<svg width="18" height="18" viewBox="0 0 18 18" fill="none" xmlns="http://www.w3.org/2000/svg">
<path d="M3 0C3.41421 0 3.75 0.335786 3.75 0.75V4.10645C4.19723 4.23344 4.60972 4.47105 4.94434 4.80566C5.46002 5.32138 5.75 6.02068 5.75 6.75C5.74998 7.47931 5.46004 8.17863 4.94434 8.69434C4.60978 9.02888 4.19714 9.26557 3.75 9.39258V16.75C3.74998 17.1642 3.4142 17.5 3 17.5C2.58584 17.5 2.25002 17.1642 2.25 16.75V9.39258C1.80286 9.26558 1.39023 9.02888 1.05566 8.69434C0.539963 8.17863 0.250024 7.47931 0.25 6.75C0.250002 6.02067 0.539958 5.32139 1.05566 4.80566C1.39029 4.47104 1.80275 4.23343 2.25 4.10645V0.75C2.25 0.335817 2.58583 4.94744e-05 3 0ZM9 0C9.41421 0 9.75 0.335786 9.75 0.75V10.1064C10.1972 10.2334 10.6097 10.471 10.9443 10.8057C11.46 11.3214 11.75 12.0207 11.75 12.75C11.75 13.4793 11.46 14.1786 10.9443 14.6943C10.6098 15.0289 10.1971 15.2656 9.75 15.3926V16.75C9.75 17.1642 9.41421 17.5 9 17.5C8.58583 17.5 8.25 17.1642 8.25 16.75V15.3926C7.80286 15.2656 7.39023 15.0289 7.05566 14.6943C6.53996 14.1786 6.25002 13.4793 6.25 12.75C6.25 12.0207 6.53996 11.3214 7.05566 10.8057C7.39029 10.471 7.80276 10.2334 8.25 10.1064V0.75C8.25 0.335817 8.58583 4.94744e-05 9 0ZM15 0C15.4142 0 15.75 0.335786 15.75 0.75V1.10645C16.1972 1.23344 16.6097 1.47104 16.9443 1.80566C17.46 2.32138 17.75 3.02068 17.75 3.75C17.75 4.47931 17.46 5.17863 16.9443 5.69434C16.6098 6.02888 16.1971 6.26558 15.75 6.39258V16.75C15.75 17.1642 15.4142 17.5 15 17.5C14.5859 17.4999 14.25 17.1642 14.25 16.75V6.39258C13.8029 6.26558 13.3902 6.02888 13.0557 5.69434C12.54 5.17863 12.25 4.47931 12.25 3.75C12.25 3.02068 12.54 2.32138 13.0557 1.80566C13.3903 1.47104 13.8028 1.23344 14.25 1.10645V0.75C14.25 0.335827 14.5858 6.5964e-05 15 0ZM9 11.5C8.66848 11.5 8.35063 11.6318 8.11621 11.8662C7.88181 12.1006 7.75 12.4185 7.75 12.75C7.75002 13.0815 7.88181 13.3994 8.11621 13.6338C8.35063 13.8682 8.6685 14 9 14C9.33151 14 9.64937 13.8682 9.88379 13.6338C10.1182 13.3994 10.25 13.0815 10.25 12.75C10.25 12.4185 10.1182 12.1006 9.88379 11.8662C9.64937 11.6318 9.33152 11.5 9 11.5ZM3 5.5C2.66848 5.5 2.35063 5.63179 2.11621 5.86621C1.88181 6.10063 1.75 6.41849 1.75 6.75C1.75002 7.08149 1.88181 7.39939 2.11621 7.63379C2.35063 7.86817 2.66851 8 3 8C3.3315 7.99999 3.64938 7.86818 3.88379 7.63379C4.11819 7.39939 4.24998 7.08149 4.25 6.75C4.25 6.41851 4.11817 6.10063 3.88379 5.86621C3.64938 5.6318 3.33151 5.50001 3 5.5ZM15 2.5C14.6685 2.5 14.3506 2.63179 14.1162 2.86621C13.8818 3.10063 13.75 3.4185 13.75 3.75C13.75 4.08149 13.8818 4.39939 14.1162 4.63379C14.3506 4.86818 14.6685 5 15 5C15.3315 5 15.6494 4.86818 15.8838 4.63379C16.1182 4.39939 16.25 4.08149 16.25 3.75C16.25 3.4185 16.1182 3.10063 15.8838 2.86621C15.6494 2.63179 15.3315 2.5 15 2.5Z" fill="#75FB4C"/>
</svg>
