<svg width="16" height="17" viewBox="0 0 16 17" fill="none" xmlns="http://www.w3.org/2000/svg">
<path d="M5.66309 10.0264C5.95591 9.73356 6.43073 9.73368 6.72363 10.0264C7.01632 10.3193 7.01644 10.7941 6.72363 11.0869L2.58398 15.2266H4.3877L4.46387 15.2305C4.84198 15.269 5.1377 15.5883 5.1377 15.9766C5.13731 16.3645 4.84181 16.6843 4.46387 16.7227L4.3877 16.7266H0.774414C0.693263 16.7266 0.616164 16.7094 0.542969 16.6855C0.524484 16.6795 0.505369 16.6754 0.487305 16.668C0.435872 16.6466 0.387677 16.6196 0.342773 16.5879C0.312156 16.5663 0.28269 16.5424 0.254883 16.5156C0.247578 16.5086 0.240414 16.5015 0.233398 16.4941C0.206693 16.4663 0.182712 16.4369 0.161133 16.4062C0.157391 16.4009 0.153019 16.396 0.149414 16.3906C0.139921 16.3764 0.133414 16.3604 0.125 16.3457C0.109365 16.3183 0.0931971 16.2911 0.0810547 16.2617C0.0743968 16.2456 0.0709134 16.2284 0.0654297 16.2119C0.0406994 16.1376 0.0244955 16.0591 0.0244141 15.9766V12.3633C0.0244141 11.9491 0.3602 11.6133 0.774414 11.6133C1.18853 11.6134 1.52441 11.9491 1.52441 12.3633V14.165L5.66309 10.0264ZM9.27637 10.0264C9.56926 9.73347 10.044 9.73347 10.3369 10.0264L14.4766 14.166V12.3633C14.4766 11.9491 14.8123 11.6133 15.2266 11.6133C15.6404 11.6137 15.9766 11.9493 15.9766 12.3633V15.9766C15.9765 16.0593 15.9584 16.1375 15.9336 16.2119C15.9282 16.2281 15.9245 16.2449 15.918 16.2607C15.8956 16.3149 15.8668 16.3652 15.833 16.4121C15.8097 16.4445 15.785 16.4767 15.7559 16.5059C15.7267 16.535 15.6945 16.5597 15.6621 16.583C15.6152 16.6168 15.5649 16.6456 15.5107 16.668C15.4949 16.6745 15.4781 16.6782 15.4619 16.6836C15.3875 16.7084 15.3093 16.7265 15.2266 16.7266H11.6133C11.1993 16.7266 10.8637 16.3904 10.8633 15.9766C10.8633 15.5623 11.1991 15.2266 11.6133 15.2266H13.416L9.27637 11.0869C8.98347 10.794 8.98347 10.3193 9.27637 10.0264ZM4.46387 0.77832C4.84201 0.81678 5.1377 1.13613 5.1377 1.52441C5.13758 1.91262 4.84196 2.23208 4.46387 2.27051L4.3877 2.27441H2.58496L6.72363 6.41309C7.01631 6.706 7.01645 7.18081 6.72363 7.47363C6.43081 7.76645 5.956 7.76631 5.66309 7.47363L1.52441 3.33496V5.1377C1.52409 5.55156 1.18833 5.88758 0.774414 5.8877C0.3604 5.8877 0.0247375 5.55163 0.0244141 5.1377V1.52441C0.0244141 1.44341 0.0397162 1.36605 0.0634766 1.29297C0.0689331 1.27615 0.0724263 1.25866 0.0791016 1.24219L0.0830078 1.23242C0.0920646 1.21099 0.104297 1.19125 0.115234 1.1709C0.14914 1.10773 0.190826 1.04746 0.244141 0.994141C0.302568 0.935713 0.369438 0.891562 0.439453 0.856445C0.453999 0.849139 0.467354 0.839376 0.482422 0.833008L0.492188 0.829102C0.508659 0.822426 0.526154 0.818933 0.542969 0.813477C0.616051 0.789716 0.693407 0.774414 0.774414 0.774414H4.3877L4.46387 0.77832ZM15.2266 0.774414C15.3091 0.774496 15.3876 0.790699 15.4619 0.81543C15.4784 0.820913 15.4956 0.824397 15.5117 0.831055C15.5411 0.843197 15.5683 0.859365 15.5957 0.875C15.6104 0.883414 15.6264 0.889921 15.6406 0.899414C15.646 0.903019 15.6509 0.907391 15.6562 0.911133C15.6869 0.932712 15.7163 0.956693 15.7441 0.983398C15.7515 0.990414 15.7586 0.997578 15.7656 1.00488C15.7924 1.03269 15.8163 1.06216 15.8379 1.09277C15.8696 1.13768 15.8966 1.18587 15.918 1.2373C15.9254 1.25537 15.9295 1.27448 15.9355 1.29297C15.9594 1.36616 15.9766 1.44326 15.9766 1.52441V5.1377C15.9762 5.55138 15.6402 5.88729 15.2266 5.8877C14.8125 5.8877 14.4769 5.55163 14.4766 5.1377V3.33398L10.3369 7.47363C10.0441 7.76644 9.56927 7.76632 9.27637 7.47363C8.98368 7.18073 8.98356 6.70591 9.27637 6.41309L13.415 2.27441H11.6133C11.1991 2.27441 10.8634 1.93853 10.8633 1.52441C10.8633 1.1102 11.1991 0.774414 11.6133 0.774414H15.2266Z" fill="#75FB4C"/>
</svg>
