<svg width="18" height="19" viewBox="0 0 18 19" fill="none" xmlns="http://www.w3.org/2000/svg">
<path d="M6.23619 11.7216C6.31366 11.7216 6.38757 11.7359 6.45787 11.7577C6.47937 11.7644 6.50137 11.7696 6.52232 11.7782C6.54179 11.7863 6.55939 11.7979 6.57799 11.8075C6.64538 11.8422 6.71002 11.8849 6.76646 11.9413C6.79761 11.9725 6.82495 12.0061 6.84947 12.0409C6.85321 12.0463 6.85758 12.0511 6.86119 12.0566C6.91889 12.1434 6.95578 12.2397 6.97349 12.3388C6.98119 12.3819 6.98619 12.4263 6.98619 12.4716V16.1288C6.9861 16.5429 6.65021 16.8787 6.23619 16.8788C5.82203 16.8788 5.48628 16.543 5.48619 16.1288V14.2821L1.28013 18.4882C0.987294 18.7806 0.512363 18.7807 0.219587 18.4882C-0.0732434 18.1954 -0.073148 17.7196 0.219587 17.4267L4.42466 13.2216H2.57896C2.1648 13.2216 1.82904 12.8857 1.82896 12.4716C1.82896 12.0574 2.16475 11.7216 2.57896 11.7216H6.23619ZM17.7372 17.4267C18.03 17.7196 18.03 18.1953 17.7372 18.4882C17.4443 18.7808 16.9684 18.781 16.6756 18.4882L17.7372 17.4267ZM15.4549 11.7255C15.8329 11.7641 16.1278 12.0834 16.1278 12.4716C16.1277 12.8597 15.8328 13.1791 15.4549 13.2177L15.3778 13.2216H13.5311L17.7372 17.4267L17.2059 17.957L16.6756 18.4882L12.4706 14.2821V16.1288C12.4705 16.543 12.1347 16.8788 11.7206 16.8788C11.3066 16.8786 10.9707 16.5428 10.9706 16.1288V12.4716C10.9706 12.3905 10.9868 12.3133 11.0106 12.2402C11.0161 12.2233 11.0195 12.2058 11.0262 12.1894L11.0301 12.1796C11.0392 12.1582 11.0514 12.1384 11.0624 12.1181C11.0962 12.0551 11.1372 11.9945 11.1903 11.9413C11.2437 11.8879 11.3048 11.8463 11.368 11.8124C11.3884 11.8015 11.4081 11.7892 11.4295 11.7802L11.4393 11.7763C11.4596 11.7681 11.4811 11.7641 11.5018 11.7577C11.5713 11.7364 11.6441 11.7216 11.7206 11.7216H15.3778L15.4549 11.7255ZM0.219587 0.969647C0.512465 0.676769 0.987237 0.676799 1.28013 0.969647L5.48619 5.17473V3.32805C5.4864 2.91401 5.82211 2.57805 6.23619 2.57805C6.65013 2.57821 6.98597 2.91411 6.98619 3.32805V6.98527C6.98619 7.03017 6.98106 7.07438 6.97349 7.11711C6.94762 7.26335 6.87932 7.40366 6.76646 7.51652C6.70097 7.58198 6.62543 7.63073 6.54576 7.66691C6.53914 7.66993 6.53295 7.67385 6.52623 7.67668C6.47255 7.69918 6.41687 7.71407 6.36021 7.72355C6.31977 7.73032 6.27854 7.73623 6.23619 7.73625L2.57896 7.73527C2.16475 7.73527 1.82897 7.39948 1.82896 6.98527C1.82918 6.57124 2.16488 6.23527 2.57896 6.23527H4.42369L0.219587 2.03019C-0.0732209 1.73734 -0.0731704 1.26254 0.219587 0.969647ZM16.6756 0.969647C16.9685 0.67682 17.4443 0.676951 17.7372 0.969647C18.0297 1.26248 18.0297 1.73737 17.7372 2.03019L13.5321 6.23527H15.3778L15.4549 6.23918C15.8328 6.2778 16.1276 6.59729 16.1278 6.98527C16.1278 7.37342 15.8329 7.69274 15.4549 7.73137L15.3778 7.73527L11.7206 7.73625C11.6775 7.73622 11.6356 7.73053 11.5946 7.72355C11.5871 7.72229 11.5795 7.72212 11.5721 7.72062C11.5598 7.71813 11.5481 7.71297 11.536 7.70988C11.501 7.70099 11.4661 7.69166 11.4325 7.67766C11.4151 7.67039 11.3994 7.6598 11.3827 7.65129C11.3141 7.61644 11.2476 7.5738 11.1903 7.51652C11.1326 7.45881 11.0895 7.39227 11.0545 7.32316C11.0461 7.30644 11.0354 7.29077 11.0282 7.27336C11.0192 7.25155 11.0146 7.22838 11.0077 7.20598C10.9861 7.136 10.9706 7.06233 10.9706 6.98527V3.32805C10.9708 2.91417 11.3067 2.57829 11.7206 2.57805C12.1346 2.57805 12.4703 2.91401 12.4706 3.32805V5.17473L16.6756 0.969647Z" fill="#75FB4C"/>
</svg>
