<svg width="8" height="14" viewBox="0 0 8 14" fill="none" xmlns="http://www.w3.org/2000/svg">
<path d="M1 1H4.75C5.34674 1 5.91903 1.23705 6.34099 1.65901C6.76295 2.08097 7 2.65326 7 3.25V4.75C7 5.34674 6.76295 5.91903 6.34099 6.34099C5.91903 6.76295 5.34674 7 4.75 7M4.75 7H2.5M4.75 7C5.34674 7 5.91903 7.23705 6.34099 7.65901C6.76295 8.08097 7 8.65326 7 9.25V10.75C7 11.3467 6.76295 11.919 6.34099 12.341C5.91903 12.7629 5.34674 13 4.75 13H1" stroke="#75FB4C" stroke-width="1.5" stroke-linecap="round" stroke-linejoin="round"/>
</svg>
