<svg width="20" height="20" viewBox="0 0 20 20" fill="none" xmlns="http://www.w3.org/2000/svg">
<path d="M10.0021 0C10.3604 0.000364675 10.6514 0.290988 10.6514 0.64935L10.6504 2.7567C12.262 2.89944 13.7222 3.56759 14.859 4.58908L15.6037 3.8474C15.7559 3.69598 16.0018 3.69668 16.1537 3.84842C16.3055 4.00069 16.3059 4.24734 16.1537 4.39935L15.4109 5.14103C16.4327 6.27807 17.0996 7.73867 17.2423 9.35065L19.3506 9.35166L19.4816 9.36485C19.7776 9.42542 20.0002 9.68812 20 10.002C19.9997 10.3154 19.7771 10.5766 19.4816 10.6372L19.3506 10.6504L17.2423 10.6494C17.0996 12.2616 16.432 13.7219 15.41 14.859L16.1537 15.6006C16.3059 15.7526 16.3057 15.9993 16.1537 16.1516C16.0018 16.3032 15.7558 16.304 15.6037 16.1526L14.859 15.4099C13.7219 16.4318 12.2616 17.0996 10.6493 17.2423L10.6514 19.3506C10.6514 19.7091 10.3605 19.9997 10.0021 20C9.6436 20 9.35291 19.7091 9.3527 19.3506L9.35066 17.2423C7.73858 17.0995 6.27808 16.4319 5.14104 15.4099L4.39936 16.1536C4.24734 16.3056 4.0006 16.3054 3.84843 16.1536C3.69624 16.0016 3.6964 15.7549 3.84843 15.6027L4.5901 14.8599C3.56728 13.7221 2.89881 12.2598 2.7567 10.6463C2.74702 10.6468 2.73705 10.6504 2.72727 10.6504H0.649352C0.291032 10.6502 0.000216104 10.3594 0 10.001C0 9.64252 0.290899 9.35187 0.649352 9.35166H2.72727C2.73705 9.35166 2.74703 9.35428 2.7567 9.3547C2.89864 7.74048 3.56679 6.27721 4.5901 5.139L3.84843 4.39732L3.7987 4.33543C3.69926 4.18427 3.71556 3.97934 3.84843 3.84638C4.0006 3.69445 4.2473 3.6944 4.39936 3.84638L5.14104 4.58908C6.27826 3.56711 7.7394 2.89923 9.35168 2.7567L9.3527 0.64935L9.36588 0.518466C9.42648 0.222583 9.68831 -3.11685e-06 10.0021 0ZM10 4.02598C6.70082 4.02618 4.02598 6.70076 4.02598 10C4.02598 13.2992 6.70082 15.9738 10 15.974C13.2994 15.974 15.974 13.2993 15.974 10C15.974 6.70064 13.2994 4.02598 10 4.02598ZM10 6.88413C11.7214 6.88413 13.1169 8.27961 13.1169 10.001C13.1169 11.7224 11.7214 13.1179 10 13.1179C8.27878 13.1177 6.88312 11.7223 6.88312 10.001C6.88312 8.27973 8.27878 6.88434 10 6.88413ZM10 8.44257C9.13948 8.44278 8.44157 9.14044 8.44157 10.001C8.44157 10.8616 9.13948 11.5593 10 11.5595C10.8608 11.5595 11.5584 10.8617 11.5584 10.001C11.5584 9.1403 10.8608 8.44257 10 8.44257Z" fill="#75FB4C"/>
</svg>
