<svg width="12" height="13" viewBox="0 0 12 13" fill="none" xmlns="http://www.w3.org/2000/svg">
<path d="M0.75 6.75C0.75 7.43944 0.885795 8.12213 1.14963 8.75909C1.41347 9.39605 1.80018 9.9748 2.28769 10.4623C2.7752 10.9498 3.35395 11.3365 3.99091 11.6004C4.62787 11.8642 5.31056 12 6 12C6.68944 12 7.37213 11.8642 8.00909 11.6004C8.64605 11.3365 9.2248 10.9498 9.71231 10.4623C10.1998 9.9748 10.5865 9.39605 10.8504 8.75909C11.1142 8.12213 11.25 7.43944 11.25 6.75C11.25 6.06056 11.1142 5.37787 10.8504 4.74091C10.5865 4.10395 10.1998 3.5252 9.71231 3.03769C9.2248 2.55018 8.64605 2.16347 8.00909 1.89963C7.37213 1.6358 6.68944 1.5 6 1.5C5.31056 1.5 4.62787 1.6358 3.99091 1.89963C3.35395 2.16347 2.7752 2.55018 2.28769 3.03769C1.80018 3.5252 1.41347 4.10395 1.14963 4.74091C0.885795 5.37787 0.75 6.06056 0.75 6.75Z" stroke="#75FB4C" stroke-width="1.5" stroke-linecap="round" stroke-linejoin="round"/>
</svg>
