<svg width="7" height="8" viewBox="0 0 7 8" fill="none" xmlns="http://www.w3.org/2000/svg">
<path d="M2.99992 6.83334C2.98355 6.54478 3.06139 6.25872 3.22171 6.01824C3.38203 5.77776 3.61615 5.59588 3.8888 5.50001C4.22291 5.37224 4.5228 5.16866 4.76487 4.9053C5.00693 4.64194 5.18455 4.32598 5.28376 3.98231C5.38296 3.63863 5.40104 3.27662 5.33656 2.92478C5.27209 2.57293 5.12682 2.24085 4.91219 1.95469C4.69757 1.66852 4.41945 1.43608 4.09973 1.27567C3.78001 1.11525 3.42742 1.03124 3.06972 1.03025C2.71201 1.02926 2.35896 1.11131 2.03835 1.26995C1.71775 1.42859 1.43835 1.65948 1.22214 1.94445" stroke="#75FB4C" stroke-width="1.5" stroke-linecap="round" stroke-linejoin="round"/>
</svg>
