<svg xmlns="http://www.w3.org/2000/svg" width="20" height="20" viewBox="0 0 20 20" fill="none">
<path d="M10.4155 9.99982C10.4155 9.88931 10.3715 9.78333 10.2934 9.70522C10.2153 9.62712 10.1093 9.58315 9.99879 9.58315C9.88827 9.58315 9.78229 9.62712 9.70419 9.70522C9.62608 9.78333 9.58211 9.88931 9.58211 9.99982C9.58211 10.1103 9.62608 10.2163 9.70419 10.2944C9.78229 10.3725 9.88827 10.4165 9.99879 10.4165C10.1093 10.4165 10.2153 10.3725 10.2934 10.2944C10.3715 10.2163 10.4155 10.1103 10.4155 9.99982ZM11.6655 9.99982C11.6655 10.4418 11.4898 10.8657 11.1772 11.1782C10.8646 11.4908 10.4408 11.6665 9.99879 11.6665C9.5568 11.6665 9.13295 11.4908 8.82038 11.1782C8.50781 10.8657 8.33209 10.4418 8.33209 9.99982C8.33209 9.55783 8.50781 9.13399 8.82038 8.82142C9.13295 8.50885 9.5568 8.33313 9.99879 8.33313C10.4408 8.33313 10.8646 8.50885 11.1772 8.82142C11.4898 9.13399 11.6655 9.55783 11.6655 9.99982Z" fill="#75FB4C"/>
<path d="M7.78354 4.60262C9.03377 4.08968 10.4236 4.0274 11.7151 4.42521C13.0066 4.82303 14.1204 5.65701 14.8654 6.78446C15.6101 7.91185 15.9402 9.26303 15.7996 10.6069C15.659 11.9509 15.056 13.2047 14.0939 14.1536C13.8481 14.3957 13.4524 14.3927 13.2101 14.147C12.9678 13.9013 12.9708 13.5056 13.2166 13.2632C13.9725 12.5176 14.4457 11.5326 14.5561 10.4767C14.6666 9.42062 14.4073 8.35883 13.822 7.47294C13.2367 6.58719 12.3619 5.93246 11.3472 5.61989C10.3325 5.30733 9.2403 5.35604 8.25799 5.75905C7.27572 6.16207 6.46427 6.89427 5.9614 7.8294C5.45858 8.76463 5.29532 9.84523 5.50079 10.8869C5.70626 11.9286 6.26746 12.8666 7.08773 13.5408C7.85682 14.1728 8.80927 14.5364 9.80017 14.5792L9.99874 14.5833L10.0622 14.5865C10.3776 14.6183 10.6237 14.8845 10.6238 15.2083C10.6238 15.5318 10.3781 15.7979 10.063 15.83L9.99874 15.8333L9.74646 15.8276C8.48529 15.7732 7.27306 15.3111 6.29426 14.5068C5.25025 13.6487 4.53669 12.4544 4.27518 11.1286C4.01368 9.80279 4.22033 8.4272 4.86031 7.23694C5.50033 6.04687 6.53345 5.11552 7.78354 4.60262Z" fill="#75FB4C"/>
<path d="M5.82356 0.913582C7.89595 -0.0388869 10.2323 -0.254095 12.4439 0.30322C14.6554 0.860583 16.6101 2.15688 17.9836 3.9776C19.3571 5.79838 20.067 8.03438 19.9953 10.314C19.9237 12.5935 19.0747 14.7802 17.5897 16.5112L17.5458 16.5576C17.3162 16.7758 16.9539 16.7894 16.7083 16.5787C16.4464 16.3539 16.4169 15.9593 16.6416 15.6974L16.8784 15.4084C18.0309 13.9429 18.6874 12.1441 18.7461 10.2741C18.8088 8.27963 18.1876 6.32348 16.9859 4.73038C15.784 3.13717 14.0731 2.00264 12.138 1.51499C10.2029 1.02744 8.15924 1.21556 6.34603 2.04885C4.53279 2.88222 3.05885 4.31073 2.16871 6.09677C1.27864 7.88285 1.02544 9.91969 1.45174 11.8692C1.87818 13.8188 2.95876 15.5641 4.51332 16.8155C5.97076 17.9888 7.76293 18.6621 9.62571 18.7418L9.99925 18.75L10.0627 18.7532C10.3779 18.7852 10.6243 19.0514 10.6243 19.375C10.6242 19.6986 10.3779 19.9647 10.0627 19.9967L9.99843 20L9.57199 19.991C7.4433 19.8999 5.39515 19.1304 3.72961 17.7897C1.95306 16.3595 0.718419 14.3649 0.231019 12.1369C-0.25634 9.90879 0.0324238 7.58068 1.04972 5.53931C2.06695 3.49815 3.75139 1.86605 5.82356 0.913582Z" fill="#75FB4C"/>
<path d="M9.37384 19.375V9.9998C9.37384 9.65461 9.65367 9.37479 9.99885 9.37479C10.344 9.37479 10.6239 9.65461 10.6239 9.9998V19.375C10.6239 19.7201 10.344 20 9.99885 20C9.65367 20 9.37384 19.7201 9.37384 19.375Z" fill="#75FB4C"/>
</svg>