<svg xmlns="http://www.w3.org/2000/svg" width="112" height="14" viewBox="0 0 112 14" fill="none">
<path d="M9.61224 3.56199H9.52224L8.53225 5.59599L5.77824 10.618L3.02424 5.59599L2.03424 3.56199H1.94424V13.174H0.000244141V0.609985H2.41224L5.77824 6.99999H5.88624L9.25224 0.609985H11.5562V13.174H9.61224V3.56199ZM21.3744 13.174C20.8584 13.174 20.4624 13.03 20.1864 12.742C19.9104 12.442 19.7424 12.064 19.6824 11.608H19.5924C19.4124 12.196 19.0824 12.64 18.6024 12.94C18.1224 13.24 17.5404 13.39 16.8564 13.39C15.8844 13.39 15.1344 13.138 14.6064 12.634C14.0904 12.13 13.8324 11.452 13.8324 10.6C13.8324 9.66399 14.1684 8.96199 14.8404 8.49399C15.5244 8.02599 16.5204 7.79199 17.8284 7.79199H19.5204V6.99999C19.5204 6.42399 19.3644 5.97999 19.0524 5.66799C18.7404 5.35599 18.2544 5.19999 17.5944 5.19999C17.0424 5.19999 16.5924 5.31999 16.2444 5.55999C15.8964 5.79999 15.6024 6.10599 15.3624 6.47799L14.1924 5.41599C14.5044 4.88799 14.9424 4.45599 15.5064 4.11999C16.0704 3.77199 16.8084 3.59799 17.7204 3.59799C18.9324 3.59799 19.8624 3.87999 20.5104 4.44399C21.1584 5.00799 21.4824 5.81799 21.4824 6.87399V11.572H22.4724V13.174H21.3744ZM17.4144 11.896C18.0264 11.896 18.5304 11.764 18.9264 11.5C19.3224 11.224 19.5204 10.858 19.5204 10.402V9.05199H17.8644C16.5084 9.05199 15.8304 9.47199 15.8304 10.312V10.636C15.8304 11.056 15.9684 11.374 16.2444 11.59C16.5324 11.794 16.9224 11.896 17.4144 11.896ZM24.3953 13.174V3.81399H26.3573V5.36199H26.4473C26.6513 4.85799 26.9573 4.43799 27.3653 4.10199C27.7853 3.76599 28.3553 3.59799 29.0753 3.59799C30.0353 3.59799 30.7793 3.91599 31.3073 4.55199C31.8473 5.17599 32.1173 6.06999 32.1173 7.23399V13.174H30.1553V7.48599C30.1553 6.02199 29.5673 5.28999 28.3913 5.28999C28.1393 5.28999 27.8873 5.32599 27.6353 5.39799C27.3953 5.45799 27.1793 5.55399 26.9873 5.68599C26.7953 5.81799 26.6393 5.98599 26.5193 6.18999C26.4113 6.39399 26.3573 6.63399 26.3573 6.90999V13.174H24.3953ZM38.5087 13.39C37.8367 13.39 37.2367 13.276 36.7087 13.048C36.1807 12.82 35.7307 12.496 35.3587 12.076C34.9867 11.644 34.6987 11.128 34.4947 10.528C34.3027 9.91599 34.2067 9.23799 34.2067 8.49399C34.2067 7.74999 34.3027 7.07799 34.4947 6.47799C34.6987 5.86599 34.9867 5.34999 35.3587 4.92999C35.7307 4.49799 36.1807 4.16799 36.7087 3.93999C37.2367 3.71199 37.8367 3.59799 38.5087 3.59799C39.1927 3.59799 39.7927 3.71799 40.3087 3.95799C40.8367 4.19799 41.2747 4.53399 41.6227 4.96599C41.9707 5.38599 42.2287 5.87799 42.3967 6.44199C42.5767 7.00599 42.6667 7.61199 42.6667 8.25999V8.99798H36.2407V9.30398C36.2407 10.024 36.4507 10.618 36.8707 11.086C37.3027 11.542 37.9147 11.77 38.7067 11.77C39.2827 11.77 39.7687 11.644 40.1647 11.392C40.5607 11.14 40.8967 10.798 41.1727 10.366L42.3247 11.5C41.9767 12.076 41.4727 12.538 40.8127 12.886C40.1527 13.222 39.3847 13.39 38.5087 13.39ZM38.5087 5.12799C38.1727 5.12799 37.8607 5.18799 37.5727 5.30799C37.2967 5.42799 37.0567 5.59599 36.8527 5.81199C36.6607 6.02799 36.5107 6.28599 36.4027 6.58599C36.2947 6.88599 36.2407 7.21599 36.2407 7.57599V7.70199H40.5967V7.52199C40.5967 6.80199 40.4107 6.22599 40.0387 5.79399C39.6667 5.34999 39.1567 5.12799 38.5087 5.12799ZM50.5086 11.626H50.4366C50.3526 11.854 50.2386 12.076 50.0946 12.292C49.9626 12.508 49.7886 12.7 49.5726 12.868C49.3686 13.024 49.1166 13.15 48.8166 13.246C48.5286 13.342 48.1926 13.39 47.8086 13.39C46.8366 13.39 46.0806 13.078 45.5406 12.454C45.0126 11.83 44.7486 10.936 44.7486 9.77199V3.81399H46.7106V9.51999C46.7106 10.972 47.3106 11.698 48.5106 11.698C48.7626 11.698 49.0086 11.668 49.2486 11.608C49.4886 11.536 49.6986 11.434 49.8786 11.302C50.0706 11.17 50.2206 11.002 50.3286 10.798C50.4486 10.594 50.5086 10.354 50.5086 10.078V3.81399H52.4706V13.174H50.5086V11.626ZM57.314 13.174L54.128 3.81399H56.072L57.494 8.07999L58.448 11.356H58.556L59.51 8.07999L60.968 3.81399H62.84L59.618 13.174H57.314ZM68.0222 13.39C67.3502 13.39 66.7502 13.276 66.2222 13.048C65.6942 12.82 65.2442 12.496 64.8723 12.076C64.5003 11.644 64.2123 11.128 64.0083 10.528C63.8163 9.91599 63.7203 9.23799 63.7203 8.49399C63.7203 7.74999 63.8163 7.07799 64.0083 6.47799C64.2123 5.86599 64.5003 5.34999 64.8723 4.92999C65.2442 4.49799 65.6942 4.16799 66.2222 3.93999C66.7502 3.71199 67.3502 3.59799 68.0222 3.59799C68.7062 3.59799 69.3063 3.71799 69.8223 3.95799C70.3503 4.19799 70.7882 4.53399 71.1362 4.96599C71.4842 5.38599 71.7422 5.87799 71.9102 6.44199C72.0902 7.00599 72.1802 7.61199 72.1802 8.25999V8.99798H65.7542V9.30398C65.7542 10.024 65.9642 10.618 66.3842 11.086C66.8162 11.542 67.4282 11.77 68.2202 11.77C68.7962 11.77 69.2822 11.644 69.6782 11.392C70.0742 11.14 70.4102 10.798 70.6862 10.366L71.8382 11.5C71.4902 12.076 70.9862 12.538 70.3262 12.886C69.6662 13.222 68.8982 13.39 68.0222 13.39ZM68.0222 5.12799C67.6862 5.12799 67.3742 5.18799 67.0862 5.30799C66.8102 5.42799 66.5702 5.59599 66.3662 5.81199C66.1742 6.02799 66.0242 6.28599 65.9162 6.58599C65.8082 6.88599 65.7542 7.21599 65.7542 7.57599V7.70199H70.1102V7.52199C70.1102 6.80199 69.9242 6.22599 69.5522 5.79399C69.1802 5.34999 68.6702 5.12799 68.0222 5.12799ZM74.3522 13.174V3.81399H76.3142V5.61399H76.4043C76.5363 5.13399 76.8122 4.71399 77.2322 4.35399C77.6522 3.99399 78.2342 3.81399 78.9782 3.81399H79.5002V5.70399H78.7262C77.9462 5.70399 77.3462 5.82999 76.9262 6.08199C76.5182 6.33399 76.3142 6.70599 76.3142 7.19799V13.174H74.3522Z" fill="#75FB4C"/>
<path d="M84.4492 3.40198H88.4672C89.2792 3.40198 89.9142 3.63068 90.3712 4.08798C90.8382 4.54528 91.0712 5.15668 91.0712 5.92198C91.0712 6.28598 91.0202 6.59398 90.9172 6.84598C90.8152 7.09798 90.6842 7.30798 90.5252 7.47598C90.3672 7.63468 90.1942 7.75598 90.0072 7.83998C89.8212 7.91468 89.6482 7.96598 89.4892 7.99398V8.07798C89.6672 8.08728 89.8632 8.13398 90.0772 8.21798C90.3012 8.30198 90.5112 8.43728 90.7072 8.62398C90.9032 8.80128 91.0672 9.03468 91.1972 9.32398C91.3372 9.60398 91.4072 9.94468 91.4072 10.346C91.4072 10.7473 91.3422 11.1207 91.2112 11.466C91.0902 11.8113 90.9172 12.11 90.6932 12.362C90.4692 12.614 90.2032 12.8147 89.8952 12.964C89.5872 13.104 89.2512 13.174 88.8872 13.174H84.4492V3.40198ZM85.6252 12.138H88.5232C89.0272 12.138 89.4242 12.012 89.7132 11.76C90.0032 11.4987 90.1472 11.1207 90.1472 10.626V10.15C90.1472 9.65528 90.0032 9.28198 89.7132 9.02998C89.4242 8.76868 89.0272 8.63798 88.5232 8.63798H85.6252V12.138ZM85.6252 7.62998H88.3272C88.7942 7.62998 89.1582 7.51328 89.4192 7.27998C89.6812 7.04668 89.8112 6.71068 89.8112 6.27198V5.79598C89.8112 5.35728 89.6812 5.02128 89.4192 4.78798C89.1582 4.55468 88.7942 4.43798 88.3272 4.43798H85.6252V7.62998ZM96.2002 13.342C95.7052 13.342 95.2572 13.2533 94.8562 13.076C94.4642 12.8987 94.1232 12.6467 93.8342 12.32C93.5542 11.984 93.3342 11.5873 93.1762 11.13C93.0262 10.6633 92.9522 10.1407 92.9522 9.56198C92.9522 8.99268 93.0262 8.47468 93.1762 8.00798C93.3342 7.54128 93.5542 7.14468 93.8342 6.81798C94.1232 6.48198 94.4642 6.22528 94.8562 6.04798C95.2572 5.87068 95.7052 5.78198 96.2002 5.78198C96.6852 5.78198 97.1192 5.87068 97.5022 6.04798C97.8842 6.22528 98.2112 6.47268 98.4822 6.78998C98.7522 7.09798 98.9582 7.46668 99.0982 7.89598C99.2472 8.32528 99.3222 8.79668 99.3222 9.30998V9.84198H94.1282V10.178C94.1282 10.486 94.1742 10.7753 94.2682 11.046C94.3702 11.3073 94.5102 11.536 94.6882 11.732C94.8742 11.928 95.0982 12.082 95.3602 12.194C95.6302 12.306 95.9342 12.362 96.2702 12.362C96.7272 12.362 97.1242 12.2547 97.4602 12.04C97.8052 11.8253 98.0712 11.5173 98.2582 11.116L99.0562 11.69C98.8222 12.1847 98.4582 12.586 97.9642 12.894C97.4692 13.1927 96.8812 13.342 96.2002 13.342ZM96.2002 6.71998C95.8922 6.71998 95.6122 6.77598 95.3602 6.88798C95.1082 6.99068 94.8882 7.13998 94.7022 7.33598C94.5242 7.53198 94.3842 7.76528 94.2822 8.03598C94.1792 8.29728 94.1282 8.58668 94.1282 8.90398V9.00198H98.1182V8.84798C98.1182 8.20398 97.9402 7.69068 97.5862 7.30798C97.2402 6.91598 96.7782 6.71998 96.2002 6.71998ZM102.763 13.174C102.371 13.174 102.073 13.0667 101.867 12.852C101.671 12.628 101.573 12.3387 101.573 11.984V6.92998H100.383V5.94998H101.055C101.298 5.94998 101.461 5.90328 101.545 5.80998C101.639 5.70728 101.685 5.53468 101.685 5.29198V3.94798H102.693V5.94998H104.275V6.92998H102.693V12.194H104.163V13.174H102.763ZM111.326 13.174C110.906 13.174 110.602 13.062 110.416 12.838C110.238 12.614 110.126 12.334 110.08 11.998H110.01C109.851 12.446 109.59 12.782 109.226 13.006C108.862 13.23 108.428 13.342 107.924 13.342C107.158 13.342 106.561 13.146 106.132 12.754C105.712 12.362 105.502 11.83 105.502 11.158C105.502 10.4767 105.749 9.95398 106.244 9.58998C106.748 9.22598 107.527 9.04398 108.582 9.04398H110.01V8.32998C110.01 7.81668 109.87 7.42468 109.59 7.15398C109.31 6.88328 108.88 6.74798 108.302 6.74798C107.863 6.74798 107.494 6.84598 107.196 7.04198C106.906 7.23798 106.664 7.49928 106.468 7.82598L105.796 7.19598C105.992 6.80398 106.304 6.47268 106.734 6.20198C107.163 5.92198 107.704 5.78198 108.358 5.78198C109.235 5.78198 109.916 5.99668 110.402 6.42598C110.887 6.85528 111.13 7.45268 111.13 8.21798V12.194H111.956V13.174H111.326ZM108.106 12.39C108.386 12.39 108.642 12.3573 108.876 12.292C109.109 12.2267 109.31 12.1333 109.478 12.012C109.646 11.8907 109.776 11.7507 109.87 11.592C109.963 11.4333 110.01 11.2607 110.01 11.074V9.88398H108.526C107.882 9.88398 107.41 9.97728 107.112 10.164C106.822 10.3507 106.678 10.6213 106.678 10.976V11.27C106.678 11.6247 106.804 11.9 107.056 12.096C107.317 12.292 107.667 12.39 108.106 12.39Z" fill="#B0B0B0"/>
</svg>