<svg xmlns="http://www.w3.org/2000/svg" width="20" height="20" viewBox="0 0 20 20" fill="none">
<path d="M10.4154 9.99982C10.4154 9.88931 10.3714 9.78333 10.2933 9.70522C10.2152 9.62712 10.1092 9.58315 9.99873 9.58315C9.88821 9.58315 9.78223 9.62712 9.70412 9.70522C9.62602 9.78333 9.58205 9.88931 9.58205 9.99982C9.58205 10.1103 9.62602 10.2163 9.70412 10.2944C9.78223 10.3725 9.88821 10.4165 9.99873 10.4165C10.1092 10.4165 10.2152 10.3725 10.2933 10.2944C10.3714 10.2163 10.4154 10.1103 10.4154 9.99982ZM11.6654 9.99982C11.6654 10.4418 11.4897 10.8657 11.1771 11.1782C10.8646 11.4908 10.4407 11.6665 9.99873 11.6665C9.55673 11.6665 9.13289 11.4908 8.82032 11.1782C8.50775 10.8657 8.33203 10.4418 8.33203 9.99982C8.33203 9.55783 8.50775 9.13399 8.82032 8.82142C9.13289 8.50885 9.55673 8.33313 9.99873 8.33313C10.4407 8.33313 10.8646 8.50885 11.1771 8.82142C11.4897 9.13399 11.6654 9.55783 11.6654 9.99982Z" fill="#75FB4C"/>
<path d="M7.78348 4.60265C9.03371 4.08971 10.4235 4.02743 11.715 4.42524C13.0066 4.82306 14.1203 5.65704 14.8653 6.78449C15.61 7.91188 15.9401 9.26306 15.7996 10.607C15.659 11.951 15.0559 13.2047 14.0938 14.1536C13.848 14.3957 13.4523 14.3928 13.21 14.1471C12.9677 13.9013 12.9708 13.5056 13.2165 13.2633C13.9725 12.5177 14.4456 11.5327 14.556 10.4768C14.6665 9.42066 14.4073 8.35887 13.822 7.47298C13.2367 6.58722 12.3618 5.93249 11.3472 5.61992C10.3324 5.30736 9.24024 5.35607 8.25793 5.75908C7.27566 6.1621 6.46421 6.8943 5.96134 7.82943C5.45852 8.76466 5.29526 9.84526 5.50072 10.8869C5.7062 11.9286 6.2674 12.8666 7.08766 13.5408C7.85676 14.1729 8.80921 14.5365 9.80011 14.5792L9.99868 14.5833L10.0622 14.5865C10.3775 14.6183 10.6236 14.8845 10.6237 15.2083C10.6237 15.5318 10.378 15.7979 10.063 15.83L9.99868 15.8333L9.7464 15.8276C8.48522 15.7732 7.273 15.3111 6.29419 14.5068C5.25019 13.6488 4.53663 12.4545 4.27512 11.1286C4.01361 9.80282 4.22027 8.42723 4.86025 7.23697C5.50027 6.0469 6.53339 5.11555 7.78348 4.60265Z" fill="#75FB4C"/>
<path d="M5.82356 0.913582C7.89595 -0.0388869 10.2323 -0.254095 12.4439 0.30322C14.6554 0.860583 16.6101 2.15688 17.9836 3.9776C19.3571 5.79838 20.067 8.03438 19.9953 10.314C19.9237 12.5935 19.0747 14.7802 17.5897 16.5112L17.5458 16.5576C17.3162 16.7758 16.9539 16.7894 16.7083 16.5787C16.4464 16.3539 16.4169 15.9593 16.6416 15.6974L16.8784 15.4084C18.0309 13.9429 18.6874 12.1441 18.7461 10.2741C18.8088 8.27963 18.1876 6.32348 16.9859 4.73038C15.784 3.13717 14.0731 2.00264 12.138 1.51499C10.2029 1.02744 8.15924 1.21556 6.34603 2.04885C4.53279 2.88222 3.05885 4.31073 2.16871 6.09677C1.27864 7.88285 1.02544 9.91969 1.45174 11.8692C1.87818 13.8188 2.95876 15.5641 4.51332 16.8155C5.97076 17.9888 7.76293 18.6621 9.62571 18.7418L9.99925 18.75L10.0627 18.7532C10.3779 18.7852 10.6243 19.0514 10.6243 19.375C10.6242 19.6986 10.3779 19.9647 10.0627 19.9967L9.99843 20L9.57199 19.991C7.4433 19.8999 5.39515 19.1304 3.72961 17.7897C1.95306 16.3595 0.718419 14.3649 0.231019 12.1369C-0.25634 9.90879 0.0324238 7.58068 1.04972 5.53931C2.06695 3.49815 3.75139 1.86605 5.82356 0.913582Z" fill="#75FB4C"/>
<path d="M9.37378 19.3749V9.99977C9.37378 9.65458 9.65361 9.37476 9.99879 9.37476C10.344 9.37476 10.6238 9.65458 10.6238 9.99977V19.3749C10.6238 19.7201 10.344 19.9999 9.99879 19.9999C9.65361 19.9999 9.37378 19.7201 9.37378 19.3749Z" fill="#75FB4C"/>
</svg>